<?xml version="1.0" encoding="UTF-8"?>
<svg width="194px" height="36px" viewBox="0 0 194 36" version="1.1" xmlns="http://www.w3.org/2000/svg" xmlns:xlink="http://www.w3.org/1999/xlink">
    <!-- Generator: Sketch 59.1 (86144) - https://sketch.com -->
    <title>Bits/Logos/clearlink-white</title>
    <desc>Created with Sketch.</desc>
    <defs>
        <polygon id="path-1" points="0 0.0004 193.204238 0.0004 193.204238 35.8454 0 35.8454"></polygon>
    </defs>
    <g id="Artboards" stroke="none" stroke-width="1" fill="none" fill-rule="evenodd">
        <g id="Desktop-Copy" transform="translate(-179.000000, -3578.000000)">
            <g id="Stacked-Group" transform="translate(1.000000, 0.000000)">
                <g id="Components/Desktop/Footer/Light" transform="translate(44.000000, 3552.000000)">
                    <g id="Footer">
                        <g id="Logo+Zip-Check">
                            <g id="Stacked-Group" transform="translate(134.000000, 24.000000)">
                                <g id="Bits/Logos/clearlink-blue" transform="translate(0.000000, 2.000000)">
                                    <g id="Group-3">
                                        <mask id="mask-2" fill="white">
                                            <use xlink:href="#path-1"></use>
                                        </mask>
                                        <g id="Clip-2"></g>
                                        <path d="M115.795128,-0.0002 L112.021318,-0.0002 L112.021318,35.3318 L119.360644,35.3318 L119.360644,3.3888 C119.360644,2.4318 119.011444,1.6268 118.313044,0.9758 C117.613623,0.3258 116.774318,-0.0002 115.795128,-0.0002 L115.795128,-0.0002 Z M127.172718,8.0108 L123.396865,8.0108 L123.396865,35.3318 L130.738234,35.3318 L130.738234,11.5028 C130.738234,10.5448 130.385971,9.7238 129.688592,9.0388 C128.989171,8.3548 128.150886,8.0108 127.172718,8.0108 L127.172718,8.0108 Z M107.775781,8.0108 C105.887855,8.0108 104.052002,8.2518 102.269244,8.7298 C100.486486,9.2098 98.9304021,9.9628 97.6030337,10.9898 C96.2041916,12.0848 95.1014547,13.5418 94.2999284,15.3548 C93.4953389,17.1698 93.0930442,19.4118 93.0930442,22.0818 L93.0930442,35.3318 L100.433392,35.3318 L100.433392,21.2608 C100.433392,19.2058 100.923497,17.7018 101.902686,16.7408 C102.880855,15.7838 104.382823,15.3038 106.412676,15.3038 L108.824402,15.3038 L108.824402,8.0108 L108.29856,8.0108 L107.775781,8.0108 Z M186.970665,8.0108 L178.160002,8.0108 L169.248255,18.0768 L169.248255,8.0108 L169.248255,3.3888 C169.248255,2.4998 168.895992,1.7118 168.197592,1.0268 C167.499192,0.3428 166.658865,-0.0002 165.680697,-0.0002 L161.905865,-0.0002 L161.905865,35.3318 L169.248255,35.3318 L169.248255,28.7588 L169.248255,24.9578 C169.248255,24.4108 169.630128,23.8008 170.400002,23.7258 C171.213781,23.6458 172.076571,24.2388 173.126213,26.0878 L178.266192,35.3318 L187.075834,35.3318 L177.007234,18.4878 L186.970665,8.0108 Z M154.723781,9.7568 C152.136434,8.1828 149.304034,7.3948 146.230665,7.3948 C143.222644,7.5328 140.477034,8.3888 137.995876,9.9628 C135.513697,11.5388 134.274139,14.6528 134.274139,19.3088 L134.274139,35.3318 L141.614486,35.3318 L141.614486,17.8708 C141.614486,16.2278 142.103571,15.0308 143.083781,14.2768 C144.061949,13.5238 145.180002,13.1468 146.439981,13.1468 C147.697918,13.1468 148.833328,13.5238 149.848255,14.2768 C150.861139,15.0308 151.367581,16.2278 151.367581,17.8708 L151.367581,31.8398 C151.367581,32.8668 151.699423,33.7058 152.363107,34.3558 C153.027813,35.0078 153.885497,35.3318 154.933097,35.3318 L158.604802,35.3318 L158.604802,19.3088 C158.604802,14.5168 157.310107,11.3328 154.723781,9.7568 L154.723781,9.7568 Z M127.172718,-0.0002 L123.396865,-0.0002 L123.396865,5.6488 L130.738234,5.6488 L130.738234,3.4918 C130.738234,2.5348 130.385971,1.7118 129.688592,1.0268 C128.989171,0.3428 128.150886,-0.0002 127.172718,-0.0002 L127.172718,-0.0002 Z M19.4700442,26.9398 C19.4547284,26.9408 19.4394126,26.9428 19.4251179,26.9438 C19.2811495,26.9618 19.1320758,26.9908 18.9830021,27.0278 C18.9554337,27.0348 18.9268442,27.0418 18.9002968,27.0488 C18.5582442,27.1458 18.2131284,27.3048 17.8996653,27.5828 C17.1624653,28.2368 16.7326021,28.8518 15.99336,29.2448 C15.1836653,29.6688 14.2259179,29.8888 13.1088863,29.8888 C11.2903916,29.8888 9.92728632,29.3408 9.01957053,28.2448 C7.75959158,26.9448 7.13164421,24.7198 7.13164421,21.5678 C7.13164421,18.4198 7.75959158,16.1608 9.01957053,14.7898 C9.99773895,13.8318 11.2566968,13.3518 12.7944021,13.3518 C14.4730126,13.3518 15.7656653,13.8318 16.6754232,14.7898 C17.0246232,15.1328 17.3728021,15.6468 17.7240442,16.3308 L25.0654126,16.3308 C24.5048547,14.3458 23.5971389,12.5988 22.3381811,11.0928 C20.0316232,8.6278 16.7795705,7.3948 12.5850863,7.3948 C8.59991789,7.3948 5.48774947,8.6628 3.25062316,11.1948 C1.08292842,13.6598 -0.000408421053,17.0848 -0.000408421053,21.4658 C-0.000408421053,26.0548 1.11764421,29.5798 3.35579158,32.0458 C5.59291789,34.5798 8.70508632,35.8458 12.6902547,35.8458 C15.9749811,35.8458 18.7022126,35.0598 20.8699074,33.4818 C23.0365811,31.9778 24.5048547,29.7848 25.2737074,26.9088 C25.2737074,26.9088 20.55236,26.9098 20.0142653,26.9098 C19.8468126,26.9098 19.6620021,26.9198 19.4700442,26.9398 L19.4700442,26.9398 Z M31.5919811,-0.0002 L27.8171495,-0.0002 L27.8171495,35.3318 L35.1574968,35.3318 L35.1574968,3.3888 C35.1574968,2.4318 34.8062547,1.6268 34.1088758,0.9758 C33.4094547,0.3258 32.5701495,-0.0002 31.5919811,-0.0002 L31.5919811,-0.0002 Z M45.3802758,18.8988 C45.4486863,17.1178 45.9745284,15.7498 46.9537179,14.7898 C47.9318863,13.8318 49.1908442,13.3518 50.7295705,13.3518 C52.4061389,13.3518 53.6998126,13.8318 54.6085495,14.7898 C55.4478547,15.6808 55.9369389,17.0488 56.0768232,18.8988 L45.3802758,18.8988 Z M50.5192337,7.3948 C46.5340653,7.3948 43.4218968,8.6628 41.1857916,11.1948 C39.0180968,13.6598 37.93476,17.0848 37.93476,21.4658 C37.93476,26.0548 39.0507705,29.5798 41.29096,32.0458 C43.5270653,34.5798 46.6392337,35.8458 50.6244021,35.8458 C53.9101495,35.8458 56.63636,35.0598 58.8040547,33.4818 C60.9707284,31.9778 62.4390021,29.7848 63.2088758,26.9088 C63.2088758,26.9088 58.84796,26.9098 57.9524968,26.9098 C57.3388442,26.9098 56.5128126,26.9818 55.8368758,27.5828 C55.10376,28.2328 54.6738968,28.8438 53.9418021,29.2368 C53.1300653,29.6668 52.1672126,29.8888 51.0430337,29.8888 C49.2245389,29.8888 47.8614337,29.3408 46.9537179,28.2448 C45.9745284,27.2178 45.4486863,25.6438 45.3802758,23.5208 L63.52336,23.5208 C63.5917705,23.3838 63.6285284,23.1458 63.6285284,22.8008 L63.6285284,22.3898 L63.6285284,21.6708 C63.6285284,17.1518 62.5084337,13.6258 60.2713074,11.0928 C57.9647495,8.6278 54.7137179,7.3948 50.5192337,7.3948 L50.5192337,7.3948 Z M192.577265,33.5758 C192.470055,33.8358 192.320981,34.0608 192.132086,34.2498 C191.942171,34.4398 191.719581,34.5898 191.465339,34.6968 C191.210076,34.8048 190.935413,34.8568 190.641349,34.8558141 C190.34116,34.8538 190.063434,34.7988 189.807149,34.6878 C189.551886,34.5778 189.331339,34.4268 189.143465,34.2338 C188.955592,34.0428 188.809581,33.8158 188.704413,33.5558 C188.599244,33.2948 188.547171,33.0118 188.549213,32.7048 C188.551255,32.4068 188.605371,32.1298 188.713602,31.8718 C188.820813,31.6148 188.969886,31.3928 189.159802,31.2048 C189.348697,31.0168 189.572307,30.8688 189.829613,30.7618 C190.085897,30.6538 190.364644,30.6018 190.663813,30.6027859 C190.958897,30.6038 191.23356,30.6598 191.486781,30.7708 C191.740002,30.8808 191.960549,31.0298 192.147402,31.2208 C192.335276,31.4098 192.481286,31.6348 192.586455,31.8928 C192.692644,32.1508 192.743697,32.4298 192.741655,32.7268 C192.739613,33.0328 192.685497,33.3158 192.577265,33.5758 L192.577265,33.5758 Z M193.006107,31.7478 C192.871328,31.4448 192.689581,31.1828 192.458823,30.9588 C192.228065,30.7348 191.959528,30.5598 191.652192,30.4308 C191.343834,30.3028 191.015055,30.2378 190.665855,30.2357531 C190.315634,30.2338 189.985834,30.2958 189.673392,30.4208 C189.362992,30.5458 189.089349,30.7188 188.854507,30.9398 C188.619665,31.1608 188.433834,31.4218 188.295992,31.7238 C188.158149,32.0248 188.088718,32.3518 188.086629,32.7018 C188.084634,33.0628 188.149981,33.3958 188.28476,33.6998 C188.419539,34.0058 188.603328,34.2708 188.835107,34.4968 C189.067907,34.7228 189.338486,34.8978 189.648886,35.0238 C189.959286,35.1498 190.289086,35.2138 190.639307,35.2158476 C190.988507,35.2178 191.317286,35.1568 191.626665,35.0338 C191.936044,34.9118 192.206623,34.7378 192.439423,34.5158 C192.672223,34.2918 192.858055,34.0278 192.994876,33.7248 C193.132718,33.4208 193.203171,33.0888 193.204238,32.7288 C193.206234,32.3778 193.140886,32.0518 193.006107,31.7478 L193.006107,31.7478 Z M190.605613,32.5628 L190.122655,32.5598 L190.12776,31.6328 L190.739371,31.6368 C190.816971,31.6368 190.895592,31.6428 190.975234,31.6538 C191.053855,31.6658 191.123286,31.6868 191.185571,31.7188 C191.245813,31.7498 191.295844,31.7948 191.333623,31.8528 C191.372423,31.9108 191.391823,31.9878 191.390802,32.0858 C191.389781,32.2018 191.368339,32.2918 191.325455,32.3558 C191.281549,32.4208 191.223349,32.4678 191.150855,32.4988 C191.077339,32.5288 190.994634,32.5478 190.901718,32.5538 C190.808802,32.5608 190.70976,32.5628 190.605613,32.5628 L190.605613,32.5628 Z M191.626665,32.6848 C191.77676,32.5628 191.852318,32.3708 191.853339,32.1088 C191.855381,31.8288 191.770634,31.6188 191.60216,31.4798 C191.432665,31.3418 191.170255,31.2718 190.816971,31.2708 L189.667265,31.2638 L189.650928,34.1778 L190.113465,34.1798 L190.120613,32.9268 L190.609697,32.9298 L191.414286,34.1868 L191.910518,34.1888 L191.067128,32.8978 C191.288697,32.8768 191.475549,32.8058 191.626665,32.6848 L191.626665,32.6848 Z M83.0795811,24.1368 C83.0795811,26.0548 82.5200442,27.5618 81.4019916,28.6548 C80.2829179,29.7518 78.7441916,30.2988 76.7868337,30.2988 C75.5973074,30.2988 74.6895916,30.0258 74.0606232,29.4778 C73.4316547,28.8608 73.1161495,28.0388 73.1161495,27.0128 C73.1161495,26.2598 73.3387389,25.3118 73.8502863,24.7528 C74.3628547,24.1928 75.3451074,23.6758 76.5775179,23.4178 C77.8109495,23.1598 78.9902653,22.9038 78.9902653,22.9038 C80.7362653,22.4928 82.0993705,22.0478 83.0795811,21.5678 L83.0795811,24.1368 Z M86.8554337,9.3458 C84.8980758,8.0468 81.9615284,7.3948 78.0457916,7.3948 C74.5497074,7.3948 71.8582126,8.1828 69.9713074,9.7568 C68.2926968,11.1278 67.3135074,12.8748 67.03476,14.9948 L74.0606232,14.9948 C74.4098232,14.2428 74.9683389,13.7288 75.7392337,13.4548 C76.5060442,13.1818 77.3810863,13.0438 78.3602758,13.0438 C79.2679916,13.0438 80.26556,13.1978 81.3499179,13.5058 C82.4322337,13.8138 82.9744126,14.4818 82.9744126,15.5088 C82.9723705,16.0778 82.6823916,16.5608 82.2494653,16.9128 C81.6378547,17.4088 80.8424547,17.6688 80.0848337,17.8598 C79.7509495,17.9428 79.4129811,18.0108 79.0729705,18.0698 C77.7874653,18.2918 76.4937916,18.4668 75.20216,18.6528 C73.9574968,18.8328 72.73836,19.1388 71.5702758,19.6008 C70.6145705,19.9778 69.6997074,20.4578 68.8695916,21.0548 C67.1552442,22.2878 66.3006232,24.3418 66.3006232,27.2178 C66.3006232,30.2988 67.2440758,32.5068 69.1320021,33.8428 C71.0189074,35.1778 73.2213179,35.8458 75.7392337,35.8458 C76.9971705,35.8458 78.4480863,35.7588 80.09096,35.5888 C81.7338337,35.4168 83.2899179,34.9558 84.7581916,34.2018 C86.1560126,33.5188 87.3608547,32.4048 88.3757811,30.8638 C89.3886653,29.3228 89.8971495,27.1848 89.8971495,24.4438 L89.8971495,15.0978 C89.8971495,12.6328 88.8822232,10.7168 86.8554337,9.3458 L86.8554337,9.3458 Z" id="Fill-1" fill="#1990FF" mask="url(#mask-2)"></path>
                                    </g>
                                </g>
                            </g>
                        </g>
                    </g>
                </g>
            </g>
        </g>
    </g>
</svg>